<?xml version="1.0" encoding="UTF-8"?>
<svg xmlns="http://www.w3.org/2000/svg" width="218" height="62" viewBox="0 0 218 62" fill="none">
  <path d="M71 39.22C71 37.256 71.2846 35.5339 71.8539 34.0538C72.4517 32.5736 73.2344 31.3497 74.2022 30.3819C75.17 29.3857 76.2801 28.6456 77.5325 28.1617C78.7849 27.6494 80.0658 27.3932 81.3751 27.3932C84.4492 27.3932 86.8402 28.3467 88.548 30.2538C90.2843 32.1609 91.1525 35.0073 91.1525 38.793C91.1525 39.0777 91.1383 39.405 91.1098 39.775C91.1098 40.1166 91.0956 40.4297 91.0671 40.7143H76.337C76.4793 42.5076 77.1055 43.9023 78.2156 44.8985C81.4426 47.6414 85.6682 46.185 88.9507 44.7782L91.1525 48.7782C90.8679 48.9206 89.0177 49.8086 88.5053 49.9794C88.0215 50.1217 87.4522 50.2498 86.7975 50.3636C86.1713 50.5059 85.4882 50.6198 84.7481 50.7052C84.008 50.7906 83.2537 50.8333 82.4852 50.8333C80.5212 50.8333 78.8134 50.5486 77.3617 49.9794C75.91 49.3816 74.7145 48.5704 73.7752 47.5457C72.8359 46.4925 72.1386 45.2686 71.6831 43.8738C71.2277 42.4506 71 40.8994 71 39.22ZM85.9863 36.9144C85.9863 36.2028 85.8867 35.5339 85.6874 34.9077C85.4882 34.253 85.1893 33.698 84.7908 33.2425C84.4208 32.7587 83.9511 32.3886 83.3818 32.1324C82.841 31.8478 82.1863 31.7055 81.4178 31.7055C80.6208 31.7055 79.9235 31.862 79.3257 32.1751C78.728 32.4598 78.2156 32.844 77.7887 33.3279C77.3902 33.8118 77.0771 34.3669 76.8493 34.9931C76.6216 35.6193 76.4651 36.2597 76.3797 36.9144H85.9863Z" fill="#0B1C46"></path>
  <path d="M95.6299 28.6741C96.6262 28.3894 97.9213 28.119 99.5152 27.8629C101.109 27.6067 102.874 27.4786 104.81 27.4786C106.631 27.4786 108.154 27.7348 109.378 28.2471C110.602 28.731 111.57 29.4284 112.281 30.3392C113.021 31.2216 113.534 32.3032 113.818 33.5841C114.131 34.8365 114.288 36.217 114.288 37.7256V50.2782H109.122V38.5368C109.122 37.3414 109.036 36.3309 108.866 35.5054C108.723 34.6515 108.467 33.9684 108.097 33.456C107.756 32.9152 107.272 32.5309 106.645 32.3032C106.048 32.0471 105.308 31.919 104.425 31.919C103.771 31.919 103.087 31.9617 102.376 32.0471C101.664 32.1324 101.138 32.2036 100.796 32.2605V50.2782H95.6299V28.6741Z" fill="#0B1C46"></path>
  <path d="M125.199 46.5637C126.565 46.5637 127.561 46.4071 128.187 46.094C128.813 45.7525 129.127 45.1832 129.127 44.3862C129.127 43.6461 128.785 43.0341 128.102 42.5503C127.447 42.0664 126.351 41.5398 124.814 40.9705C123.875 40.6289 123.007 40.2731 122.21 39.9031C121.441 39.5046 120.772 39.0492 120.203 38.5368C119.634 38.0245 119.178 37.4125 118.837 36.7009C118.524 35.9609 118.367 35.0642 118.367 34.0111C118.367 31.9617 119.121 30.3534 120.63 29.1864C122.139 27.9909 124.188 27.3932 126.778 27.3932C128.088 27.3932 129.34 27.5213 130.536 27.7775C131.731 28.0052 132.628 28.2329 133.225 28.4606L132.286 32.6448C131.717 32.3886 130.991 32.1609 130.109 31.9617C129.226 31.734 128.201 31.6201 127.034 31.6201C125.981 31.6201 125.127 31.8051 124.473 32.1751C123.818 32.5167 123.491 33.0575 123.491 33.7976C123.491 34.1676 123.548 34.495 123.661 34.7796C123.804 35.0642 124.032 35.3346 124.345 35.5908C124.658 35.8185 125.07 36.0605 125.583 36.3167C126.095 36.5444 126.721 36.7863 127.461 37.0425C128.685 37.4979 129.724 37.9533 130.578 38.4088C131.432 38.8357 132.13 39.3338 132.67 39.9031C133.24 40.4439 133.652 41.0701 133.909 41.7817C134.165 42.4933 134.293 43.3473 134.293 44.3435C134.293 46.4783 133.496 48.1007 131.902 49.2108C130.336 50.2925 128.088 50.8333 125.156 50.8333C123.192 50.8333 121.612 50.6625 120.417 50.3209C119.221 50.0078 118.381 49.7516 117.898 49.5524L118.794 45.2401C119.563 45.5532 120.474 45.8521 121.527 46.1367C122.608 46.4214 123.832 46.5637 125.199 46.5637Z" fill="#0B1C46"></path>
  <path d="M136.863 21.2782L142.029 21.2023V27.9482H149.97V32.2605H142.029V41.3548C142.029 43.148 142.313 44.4289 142.883 45.1974C143.452 45.9659 144.42 46.3502 145.786 46.3502C146.725 46.3502 147.551 46.2506 148.262 46.0513C149.002 45.8521 149.586 45.6671 150.013 45.4963L150.867 49.5951C150.269 49.8513 149.486 50.1074 148.519 50.3636C147.551 50.6483 146.412 50.7906 145.103 50.7906C143.509 50.7906 142.171 50.5771 141.089 50.1501C140.036 49.7232 139.197 49.1112 138.57 48.3142C137.944 47.4888 137.503 46.5068 137.247 45.3682C136.991 44.2012 136.863 42.8776 136.863 41.3975V21.2782Z" fill="#0B1C46"></path>
  <path d="M152.351 39.22C152.351 37.256 152.636 35.5339 153.205 34.0538C153.803 32.5736 154.585 31.3497 155.553 30.3819C156.521 29.3857 157.631 28.6456 158.883 28.1617C160.136 27.6494 161.417 27.3932 162.726 27.3932C165.8 27.3932 168.191 28.3467 169.899 30.2538C171.635 32.1609 172.503 35.0073 172.503 38.793C172.503 39.0777 172.489 39.405 172.461 39.775C172.461 40.1166 172.446 40.4297 172.418 40.7143H157.688C157.83 42.5076 158.456 43.9023 159.567 44.8985C160.705 45.8663 162.342 46.3502 164.477 46.3502C165.934 46.3502 168.951 45.7783 170.503 44.2783L172.503 48.2783C168.451 51.2783 162.512 51.4694 158.713 49.9794C157.261 49.3816 156.065 48.5704 155.126 47.5457C154.187 46.4925 153.489 45.2686 153.034 43.8738C152.579 42.4506 152.351 40.8994 152.351 39.22ZM167.337 36.9144C167.337 36.2028 167.238 35.5339 167.038 34.9077C166.839 34.253 166.54 33.698 166.142 33.2425C165.772 32.7587 165.302 32.3886 164.733 32.1324C164.192 31.8478 163.537 31.7055 162.769 31.7055C161.972 31.7055 161.274 31.862 160.677 32.1751C160.079 32.4598 159.567 32.844 159.14 33.3279C158.741 33.8118 158.428 34.3669 158.2 34.9931C157.973 35.6193 157.816 36.2597 157.731 36.9144H167.337Z" fill="#0B1C46"></path>
  <path d="M184.837 46.6491C186.431 46.6491 187.641 46.5637 188.466 46.3929V40.6716C188.181 40.5862 187.769 40.5009 187.228 40.4155C186.687 40.3301 186.089 40.2874 185.435 40.2874C184.865 40.2874 184.282 40.3301 183.684 40.4155C183.115 40.5009 182.588 40.6574 182.104 40.8851C181.649 41.1128 181.279 41.4402 180.994 41.8671C180.71 42.2656 180.567 42.778 180.567 43.4042C180.567 44.6281 180.952 45.482 181.72 45.9659C182.489 46.4214 183.528 46.6491 184.837 46.6491ZM184.41 27.3932C186.118 27.3932 187.555 27.6067 188.722 28.0336C189.889 28.4606 190.814 29.0583 191.497 29.8269C192.209 30.5954 192.707 31.5347 192.992 32.6448C193.305 33.7264 193.461 34.9219 193.461 36.2313V49.7659C192.664 49.9367 191.455 50.1359 189.832 50.3636C188.238 50.6198 186.431 50.7479 184.41 50.7479C183.072 50.7479 181.848 50.6198 180.738 50.3636C179.628 50.1074 178.674 49.6947 177.877 49.1254C177.109 48.5562 176.497 47.8161 176.042 46.9052C175.615 45.9944 175.401 44.8701 175.401 43.5323C175.401 42.2514 175.643 41.1698 176.127 40.2874C176.639 39.405 177.322 38.6934 178.176 38.1526C179.03 37.5833 180.012 37.1848 181.122 36.9571C182.261 36.7009 183.442 36.5728 184.666 36.5728C185.235 36.5728 185.833 36.6155 186.459 36.7009C187.086 36.7578 187.754 36.8717 188.466 37.0425V36.1886C188.466 35.5908 188.395 35.0215 188.253 34.4807C188.11 33.9399 187.854 33.4703 187.484 33.0718C187.142 32.6448 186.673 32.3175 186.075 32.0898C183.731 31.1523 180.416 32.4282 178.176 33.2425L175.951 29.2782C178.692 27.9077 181.365 27.3932 184.41 27.3932Z" fill="#0B1C46"></path>
  <path d="M202.844 39.0492C202.844 41.3263 203.385 43.1195 204.467 44.4289C205.548 45.7098 207.043 46.3502 208.95 46.3502C209.775 46.3502 210.473 46.3217 211.042 46.2648C211.64 46.1794 212.124 46.094 212.494 46.0086V33.1998C212.038 32.8867 211.426 32.6021 210.658 32.3459C209.918 32.0613 209.121 31.919 208.267 31.919C206.388 31.919 205.008 32.5594 204.125 33.8403C203.271 35.1212 202.844 36.8575 202.844 39.0492ZM217.66 49.5951C216.635 49.9082 215.34 50.1928 213.774 50.449C212.237 50.7052 210.615 50.8333 208.907 50.8333C207.142 50.8333 205.563 50.5629 204.168 50.022C202.773 49.4812 201.578 48.7127 200.581 47.7165C199.614 46.6918 198.859 45.4678 198.318 44.0446C197.806 42.593 197.55 40.9705 197.55 39.1773C197.55 37.4125 197.763 35.8185 198.19 34.3953C198.646 32.9437 199.3 31.7055 200.154 30.6808C201.008 29.6561 202.047 28.8733 203.271 28.3325C204.495 27.7632 205.904 27.4786 207.498 27.4786C208.58 27.4786 209.533 27.6067 210.359 27.8629C211.184 28.119 211.896 28.4037 212.494 28.7168V19.0001L217.66 19V49.5951Z" fill="#0B1C46"></path>
  <path fill-rule="evenodd" clip-rule="evenodd" d="M30.9863 12.5981C41.155 12.5981 49.374 20.8171 49.374 30.9858H12.5986C12.5986 20.8171 20.8176 12.5981 30.9863 12.5981V12.5981Z" fill="#0B1C46"></path>
  <path fill-rule="evenodd" clip-rule="evenodd" d="M5.09863 48.0238C10.6479 56.4228 20.1567 61.9721 30.9853 61.9721C41.814 61.9721 51.3527 56.4228 56.872 48.0238L46.3434 41.0947C43.0438 46.0741 37.4045 49.3737 30.9853 49.3737C24.5662 49.3737 18.8969 46.0741 15.6273 41.0947L5.09863 48.0238V48.0238Z" fill="#0B1C46"></path>
</svg>
